<svg width="44" height="30" viewBox="0 0 44 30" fill="none" xmlns="http://www.w3.org/2000/svg">
<path d="M43.3898 27.3585C43.3898 28.7752 42.2415 29.9235 40.825 29.9235H2.56483C1.1483 29.9235 0 28.775 0 27.3585V2.56491C0 1.1483 1.1483 0 2.56483 0H40.8249C42.2415 0 43.3898 1.14839 43.3898 2.56491V27.3585Z" fill="#34495E"/>
<path d="M26.2195 14.9449C26.223 14.1283 25.9168 13.3105 25.3006 12.6942C24.683 12.0766 23.8632 11.7707 23.0449 11.7756C23.041 11.7756 23.0372 11.7754 23.0331 11.7754C21.2562 11.7754 19.8467 13.1845 19.8467 14.962C19.8467 16.7219 21.2736 18.1483 23.0331 18.1483C24.8106 18.1483 26.2199 16.7389 26.2199 14.962C26.2199 14.9561 26.2195 14.9506 26.2195 14.9449Z" fill="#F26E21"/>
<path d="M19.2533 16.3098C18.7771 16.7866 18.3375 16.9728 17.864 16.9829C16.7105 16.9726 15.8625 16.1183 15.8625 14.9005C15.8625 14.2874 16.0946 13.785 16.4623 13.3557C16.8072 13.0283 17.2514 12.8168 17.7622 12.8168C18.3137 12.8168 18.7428 13.0006 19.2327 13.4909V12.0815C18.7429 11.8365 18.3136 11.7139 17.7622 11.7139C16.9833 11.7695 16.2488 12.0843 15.6854 12.5785C15.523 12.7246 15.3674 12.8859 15.2355 13.0705C14.8239 13.6039 14.5752 14.257 14.5752 14.962C14.5752 16.7389 15.9851 18.087 17.7622 18.087C17.7708 18.087 17.7794 18.0862 17.7877 18.0861C17.7997 18.0863 17.8115 18.087 17.8233 18.087C18.3135 18.087 18.7428 17.9647 19.2943 17.7195L19.2533 16.3098C19.2327 16.3305 19.2738 16.3497 19.2533 16.3693V16.3098Z" fill="#E7E8E3"/>
<path d="M30.2425 12.5918L28.8547 16.0038L27.2613 11.959H25.9746L28.487 18.1484H29.1611L31.7961 11.959H30.5094L30.2425 12.5918Z" fill="#E7E8E3"/>
<path d="M32.2861 14.6554V17.9648H35.5955H35.6565V16.984H34.6148H33.5117V15.8812V15.3298H35.5955V14.2877H33.5117V13.0009H35.6565V11.959H32.2861V14.6554Z" fill="#E7E8E3"/>
<path d="M4.58728 11.959H2.87109V17.9648H4.58719C5.50626 17.9648 6.18024 17.7195 6.73177 17.2905C7.40575 16.739 7.83491 15.8813 7.83491 14.9622C7.83499 13.1846 6.54787 11.959 4.58728 11.959ZM5.9966 16.4941C5.62889 16.8003 5.13863 16.984 4.40321 16.984H4.0355V13.0008H4.34185C5.07728 13.0008 5.56753 13.1234 5.93533 13.4909C6.36423 13.8584 6.60948 14.4102 6.60948 14.9619C6.67075 15.5135 6.42567 16.126 5.9966 16.4941Z" fill="#E7E8E3"/>
<path d="M9.55099 11.958H8.38672V17.9637H9.55099V11.958Z" fill="#E7E8E3"/>
<path d="M12.4925 14.2872C11.7572 14.0421 11.5731 13.8581 11.5731 13.5519C11.5731 13.1842 11.9409 12.8778 12.4311 12.8778C12.7988 12.8778 13.1052 13.0004 13.4116 13.3681L14.0246 12.5715C13.5342 12.1424 12.9216 11.8975 12.2475 11.8975C11.2054 11.8975 10.3475 12.633 10.3475 13.6131C10.3475 14.4713 10.7155 14.8389 11.8184 15.2679C12.3087 15.4514 12.4925 15.513 12.6153 15.6355C12.86 15.7579 12.9828 16.0032 12.9828 16.2481C12.9828 16.7384 12.6153 17.1062 12.0635 17.1062C11.5114 17.1062 11.0216 16.7998 10.7764 16.3095L10.041 17.0449C10.5928 17.8415 11.2669 18.2092 12.1248 18.2092C13.3503 18.2092 14.2079 17.4125 14.2079 16.2481C14.2081 15.2065 13.8407 14.7775 12.4925 14.2872Z" fill="#E7E8E3"/>
<path d="M38.9658 15.4519C39.8847 15.2684 40.3752 14.6553 40.3752 13.7363C40.3752 12.6335 39.5784 11.959 38.2304 11.959H36.4531V17.9648H37.6175V15.5746H37.8015L39.4557 17.9648H40.8653L38.9658 15.4519ZM37.985 14.7165H37.6175V12.8783H37.985C38.7204 12.8783 39.1496 13.1846 39.1496 13.7978C39.1496 14.4103 38.7205 14.7165 37.985 14.7165Z" fill="#E7E8E3"/>
</svg>
