<svg width="23" height="23" viewBox="0 0 23 23" fill="none" xmlns="http://www.w3.org/2000/svg">
<path d="M7.63469 10.4903L10.4903 7.62719L7.92313 5.05281L6.47594 6.5L5.59125 5.61531L7.03125 4.16813L4.59125 1.72812L1.72844 4.59125L7.63469 10.4903ZM17.4278 20.2906L20.2909 17.4278L17.8509 14.9878L16.4038 16.4278L15.5194 15.5431L16.9591 14.0959L14.4088 11.5528L11.5528 14.4084L17.4278 20.2906ZM5.19219 20.7931H1.25V16.8509L6.74281 11.3581L0 4.59125L4.59125 0L11.3894 6.77375L16.9734 1.1825C17.1114 1.04479 17.2565 0.945416 17.4088 0.884375C17.5608 0.823541 17.7234 0.793125 17.8966 0.793125C18.0697 0.793125 18.2324 0.823541 18.3847 0.884375C18.537 0.945416 18.682 1.04479 18.8197 1.1825L20.8606 3.30281C20.9983 3.44052 21.0936 3.58552 21.1466 3.73781C21.1995 3.8901 21.2259 4.05281 21.2259 4.22594C21.2259 4.39885 21.1995 4.55625 21.1466 4.69813C21.0936 4.84 20.9983 4.97979 20.8606 5.1175L15.3244 10.685L22.0431 17.4519L17.4519 22.0431L10.685 15.3003L5.19219 20.7931ZM2.5 19.5431H4.65875L16.9328 7.27625L14.7669 5.11031L2.5 17.3844V19.5431ZM15.8653 6.185L14.7669 5.11031L16.9328 7.27625L15.8653 6.185Z" fill="#ED1C24"/>
</svg>
