<svg width="20" height="24" viewBox="0 0 20 24" fill="none" xmlns="http://www.w3.org/2000/svg">
<path d="M0 23.323V2.28353C0 1.65546 0.223571 1.11785 0.670712 0.670711C1.11785 0.22357 1.65546 0 2.28353 0H17.5057C18.1337 0 18.6713 0.22357 19.1185 0.670711C19.5656 1.11785 19.7892 1.65546 19.7892 2.28353V23.323H18.3757V20.1698H1.41351V23.323H0ZM1.41351 10.9275H9.18784V1.41351H2.28353C2.0298 1.41351 1.82131 1.49503 1.65805 1.65805C1.49503 1.82131 1.41351 2.0298 1.41351 2.28353V10.9275ZM10.6013 5.46394H18.3757V2.28353C18.3757 2.0298 18.2942 1.82131 18.1311 1.65805C17.9679 1.49503 17.7594 1.41351 17.5057 1.41351H10.6013V5.46394ZM10.6013 10.9275H18.3757V6.87745H10.6013V10.9275ZM7.77432 16.2554H12.0149V14.8419H7.77432V16.2554ZM1.41351 12.341V18.7563H18.3757V12.341H1.41351Z" fill="#ED1C24"/>
</svg>
