<svg width="231" height="33" viewBox="0 0 231 33" fill="none" xmlns="http://www.w3.org/2000/svg">
<g clip-path="url(#clip0_11_677)">
<mask id="mask0_11_677" style="mask-type:luminance" maskUnits="userSpaceOnUse" x="0" y="0" width="231" height="33">
<path d="M231 0H0V33H231V0Z" fill="black"/>
</mask>
<g mask="url(#mask0_11_677)">
<mask id="mask1_11_677" style="mask-type:luminance" maskUnits="userSpaceOnUse" x="0" y="0" width="231" height="33">
<path d="M231 0H0V33H231V0Z" fill="white"/>
</mask>
<g mask="url(#mask1_11_677)">
<path d="M159.61 8.33774H157.972V11.5314H156.334V13.191H157.972V22.3359C157.972 23.3437 158.282 24.1509 158.914 24.7525C159.541 25.3541 160.32 25.655 161.253 25.655H162.506V23.9954H161.253C160.769 23.9954 160.374 23.8551 160.073 23.5793C159.767 23.3036 159.615 22.8874 159.615 22.3359V13.191H162.506V11.5314H159.615V8.33774H159.61Z" fill="white"/>
<path d="M170.148 12.7297C171.273 12.7297 172.304 13.0406 173.246 13.6572C174.189 14.2739 174.894 15.0861 175.378 16.0989H177.139C176.626 14.6349 175.728 13.4417 174.45 12.5141C173.172 11.5866 171.742 11.1253 170.148 11.1253C168.11 11.1253 166.369 11.8523 164.933 13.3063C163.497 14.7603 162.777 16.5201 162.777 18.5857C162.777 20.6513 163.497 22.4161 164.933 23.8801C166.369 25.3441 168.11 26.0761 170.148 26.0761C171.737 26.0761 173.172 25.6149 174.45 24.6873C175.723 23.7598 176.621 22.5565 177.139 21.0775H175.378C174.894 22.0852 174.189 22.9025 173.246 23.5292C172.304 24.1559 171.278 24.4667 170.148 24.4667C168.574 24.4667 167.232 23.8902 166.127 22.737C165.017 21.5839 164.464 20.2001 164.464 18.5907C164.464 16.9813 165.017 15.6026 166.127 14.4594C167.237 13.3113 168.574 12.7397 170.148 12.7397V12.7297Z" fill="white"/>
<path d="M184.559 11.1203C183.513 11.1203 182.541 11.4111 181.634 11.9877C180.726 12.5643 180.104 13.211 179.769 13.928H179.719V7.3701H178.081V25.66H179.719V16.9562C179.749 15.8181 180.247 14.8304 181.214 13.9932C182.176 13.1559 183.247 12.7397 184.416 12.7397C185.585 12.7397 186.538 13.1108 187.258 13.8478C187.978 14.5848 188.343 15.5574 188.343 16.7607V25.665H189.981V16.7607C189.981 15.0711 189.503 13.7074 188.546 12.6746C187.589 11.6418 186.261 11.1253 184.559 11.1253" fill="white"/>
<path d="M198.275 11.1203C196.252 11.1203 194.52 11.8473 193.085 13.3013C191.649 14.7552 190.929 16.515 190.929 18.5807C190.929 20.6463 191.649 22.4111 193.085 23.8751C194.52 25.3391 196.252 26.0711 198.275 26.0711C199.75 26.0711 201.092 25.665 202.296 24.8528C203.5 24.0406 204.393 22.9676 204.97 21.634H203.115C202.602 22.4813 201.921 23.1632 201.067 23.6796C200.214 24.201 199.286 24.4617 198.275 24.4617C196.844 24.4617 195.601 23.9804 194.54 23.0128C193.479 22.0451 192.848 20.8469 192.636 19.4129H205.572C205.621 18.8765 205.646 18.6007 205.646 18.5807C205.646 16.515 204.925 14.7552 203.49 13.3013C202.054 11.8473 200.312 11.1203 198.275 11.1203ZM192.636 17.7534C192.843 16.3245 193.479 15.1263 194.54 14.1686C195.601 13.211 196.844 12.7297 198.275 12.7297C199.706 12.7297 200.954 13.211 202.02 14.1686C203.085 15.1263 203.727 16.3245 203.934 17.7534H192.636Z" fill="white"/>
<path d="M213.071 11.1203C212.025 11.1203 211.053 11.4111 210.145 11.9877C209.238 12.5643 208.616 13.211 208.28 13.928H208.231V11.5365H206.593V25.655H208.231V16.9512C208.266 15.8131 208.764 14.8254 209.726 13.9881C210.688 13.1509 211.759 12.7347 212.928 12.7347C214.097 12.7347 215.049 13.1057 215.77 13.8428C216.49 14.5848 216.855 15.5524 216.855 16.7557V25.66H218.493V16.7557C218.493 15.0661 218.015 13.7024 217.057 12.6696C216.1 11.6367 214.773 11.1203 213.071 11.1203Z" fill="white"/>
<path d="M11.5892 2.94804H29.686V30.052H2.91087V23.7748L6.9861 26.5173H25.6058L20.3514 22.9827H6.9861L0 18.2849V33H32.5968V0H0V7.66089L6.9861 12.3737H25.6058L11.5892 2.94804Z" fill="white"/>
<path d="M6.9861 15.9084H20.3514L25.6108 19.443H6.98116L0 14.7502V11.2156L6.9861 15.9084Z" fill="white"/>
<path d="M150.487 7.36509L140.151 17.8286V7.36509H138.513V25.655H140.151V20.165L142.613 17.6782L150.487 25.655H152.801L143.768 16.51L152.801 7.36509H150.487Z" fill="white"/>
<path d="M155.386 11.5314H153.748V25.65H155.386V11.5314Z" fill="white"/>
<path d="M39.8444 25.655H53.116V22.3359H43.2635V18.1445H51.4534V14.8254H43.2635V10.6791H53.116V7.36509H39.8444V25.655Z" fill="white"/>
<path d="M64.207 11.5365L61.1727 15.753L61.1826 15.773L58.1336 11.5365H54.0633L59.1351 18.5957L54.0633 25.655H58.1336L61.1678 21.4284L64.207 25.655H68.2772L63.2054 18.5957L68.2772 11.5365H64.207Z" fill="white"/>
<path d="M77.3404 11.1203C75.4607 11.1203 73.9115 11.9476 72.6929 13.6071H72.6436V11.5365H69.2245V29.8263H72.6436V23.6094H72.6929C73.8967 25.2539 75.4459 26.0711 77.3404 26.0711C79.4126 26.0711 81.095 25.3692 82.3974 23.9603C83.6999 22.5515 84.3463 20.7716 84.3463 18.6057C84.3463 16.4398 83.695 14.655 82.3974 13.2411C81.0999 11.8273 79.4126 11.1203 77.3404 11.1203ZM79.6247 21.629C78.8551 22.4763 77.8831 22.8974 76.7089 22.8974C75.5347 22.8974 74.5677 22.4763 73.7931 21.629C73.0235 20.7817 72.6386 19.7739 72.6386 18.6057C72.6386 17.4376 73.0235 16.4248 73.7931 15.5675C74.5628 14.7101 75.5347 14.289 76.7089 14.289C77.8831 14.289 78.8551 14.7151 79.6247 15.5675C80.3944 16.4198 80.7792 17.4325 80.7792 18.6057C80.7792 19.7789 80.3944 20.7867 79.6247 21.629Z" fill="white"/>
<path d="M88.3771 13.4868H88.3277V11.5365H85.2935V25.655H88.5942V17.5579C88.6583 16.7256 88.9839 16.0337 89.571 15.4722C90.1581 14.9107 90.8587 14.6299 91.6777 14.6299H92.472V11.1203H92.1859C90.5627 11.1203 89.2947 11.9075 88.382 13.4868H88.3771Z" fill="white"/>
<path d="M100.366 11.1203C98.2444 11.1203 96.4486 11.8373 94.9685 13.2662C93.4933 14.6951 92.7533 16.4699 92.7533 18.5807C92.7533 20.6914 93.4884 22.4713 94.9586 23.9102C96.4288 25.3491 98.2148 26.0661 100.317 26.0661C101.876 26.0661 103.277 25.6449 104.53 24.7976C105.783 23.9503 106.656 22.8222 107.155 21.4084H103.445C103.139 21.8797 102.714 22.2758 102.167 22.5916C101.619 22.9075 101.002 23.0679 100.312 23.0679C99.3644 23.0679 98.5257 22.7821 97.7955 22.2156C97.0653 21.649 96.6065 20.9622 96.4091 20.17H107.658C107.786 19.6035 107.85 19.072 107.85 18.5857C107.85 16.505 107.12 14.7402 105.66 13.2912C104.199 11.8423 102.433 11.1203 100.361 11.1203M96.4634 17.1668C96.641 16.2894 97.0801 15.5474 97.7905 14.9458C98.4961 14.3441 99.3545 14.0433 100.366 14.0433C101.377 14.0433 102.226 14.3391 102.907 14.9357C103.588 15.5273 104.017 16.2744 104.194 17.1668H96.4634Z" fill="white"/>
<path d="M120.367 19.1572C119.953 18.5155 119.435 18.0793 118.818 17.8437C118.201 17.613 117.53 17.4376 116.8 17.3172C116.07 17.1969 115.399 17.0866 114.787 16.9863C114.175 16.8861 113.657 16.7106 113.238 16.4649C112.819 16.2192 112.606 15.8633 112.606 15.402C112.606 14.9407 112.789 14.5948 113.149 14.314C113.509 14.0383 114.052 13.8979 114.772 13.8979C115.493 13.8979 116.129 14.0734 116.578 14.4193C117.002 14.7502 117.214 15.2065 117.244 15.7881H120.525C120.5 14.3291 119.992 13.191 119 12.3737C117.979 11.5365 116.573 11.1203 114.772 11.1203C112.971 11.1203 111.625 11.4913 110.628 12.2283C109.631 12.9704 109.133 14.0383 109.133 15.4371C109.133 16.4448 109.34 17.2671 109.75 17.8988C110.159 18.5305 110.672 18.9617 111.289 19.1773C111.906 19.3979 112.577 19.5784 113.302 19.7188C114.022 19.8592 114.693 19.9594 115.315 20.0146C115.932 20.0697 116.445 20.2302 116.854 20.4909C117.2 20.7115 117.387 21.0173 117.446 21.4084C117.456 21.4836 117.471 21.5538 117.471 21.634C117.471 22.1554 117.224 22.5515 116.736 22.8373C116.243 23.1231 115.591 23.2634 114.772 23.2634C113.953 23.2634 113.342 23.0779 112.843 22.717C112.379 22.376 112.143 21.9398 112.108 21.4134H108.803C108.832 22.8022 109.37 23.9202 110.426 24.7675C111.511 25.6399 112.957 26.0711 114.772 26.0711C116.588 26.0711 118.117 25.7001 119.267 24.9631C120.416 24.2261 120.989 23.113 120.989 21.634C120.989 21.5588 120.979 21.4886 120.979 21.4134C120.949 20.5109 120.752 19.7539 120.367 19.1623" fill="white"/>
<path d="M131.951 17.8487C131.335 17.618 130.664 17.4426 129.934 17.3222C129.203 17.2019 128.532 17.0916 127.921 16.9913C127.309 16.8911 126.791 16.7156 126.371 16.4699C126.075 16.2995 125.893 16.0688 125.804 15.7931C125.765 15.6727 125.74 15.5474 125.74 15.407C125.74 14.9608 125.922 14.5998 126.283 14.3191C126.643 14.0433 127.185 13.9029 127.906 13.9029C128.626 13.9029 129.263 14.0784 129.711 14.4243C130.136 14.7552 130.348 15.2115 130.378 15.7931H133.658C133.634 14.3341 133.126 13.196 132.134 12.3788C131.113 11.5415 129.707 11.1253 127.906 11.1253C126.105 11.1253 124.758 11.4964 123.761 12.2334C122.765 12.9754 122.267 14.0433 122.267 15.4421C122.267 15.5675 122.281 15.6778 122.286 15.7981C122.331 16.6404 122.523 17.3523 122.883 17.9038C123.293 18.5356 123.806 18.9667 124.423 19.1823C125.039 19.4029 125.71 19.5834 126.436 19.7238C127.156 19.8642 127.827 19.9644 128.448 20.0196C129.07 20.0747 129.578 20.2352 129.988 20.4959C130.397 20.7566 130.604 21.1376 130.604 21.639C130.604 22.1404 130.358 22.5565 129.869 22.8423C129.381 23.1281 128.725 23.2685 127.906 23.2685C127.087 23.2685 126.475 23.083 125.977 22.722C125.513 22.381 125.276 21.9449 125.242 21.4184H121.936C121.966 22.8072 122.503 23.9253 123.559 24.7726C124.645 25.6449 126.09 26.0761 127.906 26.0761C129.721 26.0761 131.251 25.7051 132.4 24.9681C133.55 24.2311 134.122 23.118 134.122 21.639C134.122 20.6363 133.915 19.809 133.496 19.1673C133.081 18.5255 132.563 18.0893 131.946 17.8537" fill="white"/>
<path d="M230.324 19.3026C229.875 18.686 229.313 18.2799 228.642 18.0843C227.966 17.8888 227.241 17.7233 226.461 17.598C225.681 17.4727 224.951 17.3523 224.285 17.242C223.614 17.1317 223.052 16.881 222.603 16.485C222.154 16.0889 221.927 15.5324 221.927 14.8104C221.927 14.1837 222.233 13.6823 222.845 13.3063C223.456 12.9303 224.3 12.7397 225.371 12.7397C226.441 12.7397 227.255 12.9704 227.887 13.4366C228.523 13.8979 228.839 14.4795 228.839 15.1814H230.502C230.502 13.9932 230.028 13.0255 229.081 12.2685C228.134 11.5114 226.895 11.1354 225.371 11.1354C223.846 11.1354 222.667 11.4562 221.7 12.098C220.728 12.7397 220.245 13.6723 220.245 14.8906C220.245 15.768 220.412 16.49 220.753 17.0465C221.088 17.608 221.522 18.0141 222.055 18.2648C222.588 18.5155 223.175 18.696 223.826 18.7963C224.478 18.9016 225.124 19.0018 225.765 19.1071C226.407 19.2124 226.994 19.3327 227.522 19.4781C228.055 19.6235 228.484 19.8792 228.824 20.2452C229.16 20.6112 229.332 21.1026 229.332 21.7192C229.332 22.5966 228.987 23.2735 228.296 23.7548C227.606 24.2361 226.634 24.4717 225.381 24.4717C224.127 24.4717 223.195 24.186 222.489 23.6194C221.784 23.0529 221.429 22.3209 221.429 21.4234H219.766C219.766 22.7871 220.279 23.9052 221.305 24.7776C222.332 25.65 223.688 26.0811 225.376 26.0811C227.063 26.0811 228.504 25.7051 229.505 24.948C230.507 24.191 231.01 23.1381 231.01 21.7894C231.01 20.7566 230.783 19.9294 230.334 19.3127" fill="white"/>
</g>
</g>
</g>
<defs>
<clipPath id="clip0_11_677">
<rect width="231" height="33" fill="white"/>
</clipPath>
</defs>
</svg>
