<?xml version="1.0" encoding="UTF-8"?>
<svg id="Layer_1" xmlns="http://www.w3.org/2000/svg" xmlns:xlink="http://www.w3.org/1999/xlink" version="1.1" viewBox="0 0 469 66">
  <!-- Generator: Adobe Illustrator 30.3.0, SVG Export Plug-In . SVG Version: 2.1.3 Build 182)  -->
  <defs>
    <style>
      .st0 {
        fill: none;
      }

      .st1 {
        mask: url(#mask);
      }

      .st2 {
        mask: url(#mask-1);
      }

      .st3 {
        fill: #fff;
      }

      .st4 {
        clip-path: url(#clippath);
      }
    </style>
    <clipPath id="clippath">
      <rect class="st0" width="468.21" height="65.82"/>
    </clipPath>
    <mask id="mask" x="0" y="0" width="468.23" height="65.82" maskUnits="userSpaceOnUse">
      <g id="mask0_659_252">
        <path d="M468.21,0H0v65.82h468.21V0Z"/>
      </g>
    </mask>
    <mask id="mask-1" x="0" y="0" width="468.23" height="65.82" maskUnits="userSpaceOnUse">
      <g id="mask1_659_252">
        <path class="st3" d="M468.21,0H0v65.82h468.21V0Z"/>
      </g>
    </mask>
  </defs>
  <g class="st4">
    <g class="st1">
      <g class="st2">
        <g>
          <path class="st3" d="M323.51,16.63h-3.32v6.37h-3.32v3.31h3.32v18.24c0,2.01.63,3.62,1.91,4.82,1.27,1.2,2.85,1.8,4.74,1.8h2.54v-3.31h-2.54c-.98,0-1.78-.28-2.39-.83-.62-.55-.93-1.38-.93-2.48v-18.24h5.86v-3.31h-5.86v-6.37h0Z"/>
          <path class="st3" d="M344.87,25.39c2.28,0,4.37.62,6.28,1.85,1.91,1.23,3.34,2.85,4.32,4.87h3.57c-1.04-2.92-2.86-5.3-5.45-7.15s-5.49-2.77-8.72-2.77c-4.13,0-7.66,1.45-10.57,4.35-2.91,2.9-4.37,6.41-4.37,10.53s1.46,7.64,4.37,10.56c2.91,2.92,6.44,4.38,10.57,4.38,3.22,0,6.13-.92,8.72-2.77,2.58-1.85,4.4-4.25,5.45-7.2h-3.57c-.98,2.01-2.41,3.64-4.32,4.89s-3.99,1.87-6.28,1.87c-3.19,0-5.91-1.15-8.15-3.45-2.25-2.3-3.37-5.06-3.37-8.27s1.12-5.96,3.37-8.24c2.25-2.29,4.96-3.43,8.15-3.43v-.02Z"/>
          <path class="st3" d="M374.08,22.18c-2.12,0-4.09.58-5.93,1.73s-3.1,2.44-3.78,3.87h-.1v-13.08h-3.32v36.48h3.32v-17.36c.06-2.27,1.07-4.24,3.03-5.91,1.95-1.67,4.12-2.5,6.49-2.5s4.3.74,5.76,2.21c1.46,1.47,2.2,3.41,2.2,5.81v17.76h3.32v-17.76c0-3.37-.97-6.09-2.91-8.15-1.94-2.06-4.63-3.09-8.08-3.09"/>
          <path class="st3" d="M401.88,22.18c-4.1,0-7.61,1.45-10.52,4.35-2.91,2.9-4.37,6.41-4.37,10.53s1.46,7.64,4.37,10.56c2.91,2.92,6.42,4.38,10.52,4.38,2.99,0,5.71-.81,8.15-2.43,2.44-1.62,4.25-3.76,5.42-6.42h-3.76c-1.04,1.69-2.42,3.05-4.15,4.08-1.73,1.04-3.61,1.56-5.66,1.56-2.9,0-5.42-.96-7.57-2.89s-3.43-4.32-3.86-7.18h26.22c.1-1.07.15-1.62.15-1.66,0-4.12-1.46-7.63-4.37-10.53-2.91-2.9-6.44-4.35-10.57-4.35ZM390.45,35.41c.42-2.85,1.71-5.24,3.86-7.15s4.67-2.87,7.57-2.87,5.43.96,7.59,2.87,3.46,4.3,3.88,7.15h-22.9Z"/>
          <path class="st3" d="M431.87,22.18c-2.12,0-4.09.58-5.93,1.73s-3.1,2.44-3.78,3.87h-.1v-4.77h-3.32v28.16h3.32v-17.36c.07-2.27,1.08-4.24,3.03-5.91,1.95-1.67,4.12-2.5,6.49-2.5s4.3.74,5.76,2.21c1.46,1.48,2.2,3.41,2.2,5.81v17.76h3.32v-17.76c0-3.37-.97-6.09-2.91-8.15-1.94-2.06-4.63-3.09-8.08-3.09Z"/>
          <path class="st3" d="M23.49,5.88h36.68v54.06H5.9v-12.52l8.26,5.47h37.74l-10.65-7.05H14.16L0,36.47v29.35h66.07V0H0v15.28l14.16,9.4h37.74L23.49,5.88Z"/>
          <path class="st3" d="M14.16,31.73h27.09l10.66,7.05H14.15L0,29.42v-7.05l14.16,9.36Z"/>
          <path class="st3" d="M305.02,14.69l-20.95,20.87V14.69h-3.32v36.48h3.32v-10.95l4.99-4.96,15.96,15.91h4.69l-18.31-18.24,18.31-18.24h-4.69Z"/>
          <path class="st3" d="M314.95,23h-3.32v28.16h3.32v-28.16Z"/>
          <path class="st3" d="M80.76,51.17h26.9v-6.62h-19.97v-8.36h16.6v-6.62h-16.6v-8.27h19.97v-6.61h-26.9v36.48Z"/>
          <path class="st3" d="M130.14,23.01l-6.15,8.41.02.04-6.18-8.45h-8.25l10.28,14.08-10.28,14.08h8.25l6.15-8.43,6.16,8.43h8.25l-10.28-14.08,10.28-14.08h-8.25Z"/>
          <path class="st3" d="M156.76,22.18c-3.81,0-6.95,1.65-9.42,4.96h-.1v-4.13h-6.93v36.48h6.93v-12.4h.1c2.44,3.28,5.58,4.91,9.42,4.91,4.2,0,7.61-1.4,10.25-4.21,2.64-2.81,3.95-6.36,3.95-10.68s-1.32-7.88-3.95-10.7c-2.63-2.82-6.05-4.23-10.25-4.23ZM161.39,43.14c-1.56,1.69-3.53,2.53-5.91,2.53s-4.34-.84-5.91-2.53c-1.56-1.69-2.34-3.7-2.34-6.03s.78-4.35,2.34-6.06c1.56-1.71,3.53-2.55,5.91-2.55s4.35.85,5.91,2.55,2.34,3.72,2.34,6.06-.78,4.35-2.34,6.03Z"/>
          <path class="st3" d="M179.13,26.9h-.1v-3.89h-6.15v28.16h6.69v-16.15c.13-1.66.79-3.04,1.98-4.16,1.19-1.12,2.61-1.68,4.27-1.68h1.61v-7h-.58c-3.29,0-5.86,1.57-7.71,4.72h0Z"/>
          <path class="st3" d="M203.43,22.18c-4.3,0-7.94,1.43-10.94,4.28-2.99,2.85-4.49,6.39-4.49,10.6s1.49,7.76,4.47,10.63,6.6,4.3,10.86,4.3c3.16,0,6-.84,8.54-2.53,2.54-1.69,4.31-3.94,5.32-6.76h-7.52c-.62.94-1.48,1.73-2.59,2.36s-2.36.95-3.76.95c-1.92,0-3.62-.57-5.1-1.7s-2.41-2.5-2.81-4.08h22.8c.26-1.13.39-2.19.39-3.16,0-4.15-1.48-7.67-4.44-10.56-2.96-2.89-6.54-4.33-10.74-4.33M195.52,34.24c.36-1.75,1.25-3.23,2.69-4.43,1.43-1.2,3.17-1.8,5.22-1.8s3.77.59,5.15,1.78c1.38,1.18,2.25,2.67,2.61,4.45h-15.67Z"/>
          <path class="st3" d="M243.97,38.21c-.84-1.28-1.89-2.15-3.14-2.62-1.25-.46-2.61-.81-4.09-1.05-1.48-.24-2.84-.46-4.08-.66-1.24-.2-2.29-.55-3.14-1.04-.85-.49-1.28-1.2-1.28-2.12s.37-1.61,1.1-2.17c.73-.55,1.83-.83,3.29-.83s2.75.35,3.66,1.04c.86.66,1.29,1.57,1.35,2.73h6.65c-.05-2.91-1.08-5.18-3.09-6.81-2.07-1.67-4.92-2.5-8.57-2.5s-6.38.74-8.4,2.21c-2.02,1.48-3.03,3.61-3.03,6.4,0,2.01.42,3.65,1.25,4.91.83,1.26,1.87,2.12,3.12,2.55,1.25.44,2.61.8,4.08,1.08,1.46.28,2.82.48,4.08.59,1.25.11,2.29.43,3.12.95.7.44,1.08,1.05,1.2,1.83.02.15.05.29.05.45,0,1.04-.5,1.83-1.49,2.4-1,.57-2.32.85-3.98.85s-2.9-.37-3.91-1.09c-.94-.68-1.42-1.55-1.49-2.6h-6.7c.06,2.77,1.15,5,3.29,6.69,2.2,1.74,5.13,2.6,8.81,2.6s6.78-.74,9.11-2.21c2.33-1.47,3.49-3.69,3.49-6.64,0-.15-.02-.29-.02-.44-.06-1.8-.46-3.31-1.24-4.49"/>
          <path class="st3" d="M267.45,35.6c-1.25-.46-2.61-.81-4.09-1.05-1.48-.24-2.84-.46-4.08-.66s-2.29-.55-3.14-1.04c-.6-.34-.97-.8-1.15-1.35-.08-.24-.13-.49-.13-.77,0-.89.37-1.61,1.1-2.17.73-.55,1.83-.83,3.29-.83s2.75.35,3.66,1.04c.86.66,1.29,1.57,1.35,2.73h6.65c-.05-2.91-1.08-5.18-3.09-6.81-2.07-1.67-4.92-2.5-8.57-2.5s-6.38.74-8.4,2.21c-2.02,1.48-3.03,3.61-3.03,6.4,0,.25.03.47.04.71.09,1.68.48,3.1,1.21,4.2.83,1.26,1.87,2.12,3.12,2.55,1.25.44,2.61.8,4.08,1.08,1.46.28,2.82.48,4.08.59,1.26.11,2.29.43,3.12.95.83.52,1.25,1.28,1.25,2.28s-.5,1.83-1.49,2.4c-.99.57-2.32.85-3.98.85s-2.9-.37-3.91-1.09c-.94-.68-1.42-1.55-1.49-2.6h-6.7c.06,2.77,1.15,5,3.29,6.69,2.2,1.74,5.13,2.6,8.81,2.6s6.78-.74,9.11-2.21c2.33-1.47,3.49-3.69,3.49-6.64,0-2-.42-3.65-1.27-4.93-.84-1.28-1.89-2.15-3.14-2.62"/>
          <path class="st3" d="M466.84,38.5c-.91-1.23-2.05-2.04-3.41-2.43-1.37-.39-2.84-.72-4.42-.97-1.58-.25-3.06-.49-4.41-.71-1.36-.22-2.5-.72-3.41-1.51-.91-.79-1.37-1.9-1.37-3.34,0-1.25.62-2.25,1.86-3,1.24-.75,2.95-1.13,5.12-1.13s3.82.46,5.1,1.39c1.29.92,1.93,2.08,1.93,3.48h3.37c0-2.37-.96-4.3-2.88-5.81-1.92-1.51-4.43-2.26-7.52-2.26s-5.48.64-7.44,1.92c-1.97,1.28-2.95,3.14-2.95,5.57,0,1.75.34,3.19,1.03,4.3.68,1.12,1.56,1.93,2.64,2.43,1.08.5,2.27.86,3.59,1.06,1.32.21,2.63.41,3.93.62,1.3.21,2.49.45,3.56.74,1.08.29,1.95.8,2.64,1.53.68.73,1.03,1.71,1.03,2.94,0,1.75-.7,3.1-2.1,4.06-1.4.96-3.37,1.43-5.91,1.43s-4.43-.57-5.86-1.7c-1.43-1.13-2.15-2.59-2.15-4.38h-3.37c0,2.72,1.04,4.95,3.12,6.69,2.08,1.74,4.83,2.6,8.25,2.6s6.34-.75,8.37-2.26c2.03-1.51,3.05-3.61,3.05-6.3,0-2.06-.46-3.71-1.37-4.94"/>
        </g>
      </g>
    </g>
  </g>
</svg>