<svg width="32" height="22" viewBox="0 0 32 22" fill="none" xmlns="http://www.w3.org/2000/svg">
<g opacity="0.3" clip-path="url(#clip0_239_400)">
<path d="M11.0357 5.9127H10.2642C10.2642 8.34073 8.30515 10.2966 5.89983 10.2966V11.8254C9.16743 11.8254 11.7997 9.17256 11.7997 5.9127H11.0282H11.0357ZM5.89983 11.0535V10.2892C3.50208 10.2892 1.54303 8.33324 1.54303 5.90521H0C0 9.15757 2.63223 11.8179 5.89983 11.8179V11.0535ZM0.771517 5.9127H1.54303C1.54303 3.48467 3.50208 1.52876 5.89983 1.52876V0C2.63223 0 0 2.65285 0 5.9127H0.771517ZM5.89983 0.76438V1.52876C8.29759 1.52876 10.2642 3.48467 10.2642 5.9127H11.8072C11.7997 2.65285 9.16743 0 5.89983 0V0.76438Z" fill="#3D3D3D"/>
<path d="M11.0357 5.9127H10.2642C10.2642 8.34073 8.30515 10.2966 5.89983 10.2966V11.8254C9.16743 11.8254 11.7997 9.17256 11.7997 5.9127H11.0282H11.0357ZM5.89983 11.0535V10.2892C3.50208 10.2892 1.54303 8.33324 1.54303 5.90521H0C0 9.15757 2.63223 11.8179 5.89983 11.8179V11.0535ZM0.771517 5.9127H1.54303C1.54303 3.48467 3.50208 1.52876 5.89983 1.52876V0C2.63223 0 0 2.65285 0 5.9127H0.771517ZM5.89983 0.76438V1.52876C8.29759 1.52876 10.2642 3.48467 10.2642 5.9127H11.8072C11.7997 2.65285 9.16743 0 5.89983 0V0.76438Z" fill="#ED1C24"/>
<path d="M13.963 18.4051H13.1915C13.1915 19.2069 12.541 19.8439 11.7619 19.8439V21.3727C13.4108 21.3727 14.7345 20.0313 14.7345 18.4051H13.963ZM11.7619 20.6083V19.8439C10.9828 19.8439 10.3323 19.2069 10.3323 18.4051H8.78931C8.78931 20.0388 10.113 21.3727 11.7619 21.3727V20.6083ZM9.56839 18.4051H10.3399C10.3399 17.5957 10.9904 16.9663 11.7695 16.9663V15.4375C10.1206 15.4375 8.79687 16.7789 8.79687 18.4051H9.56839ZM11.7619 16.2019V16.9663C12.541 16.9663 13.1915 17.6032 13.1915 18.4051H14.7345C14.7345 16.7714 13.4108 15.4375 11.7619 15.4375V16.2019Z" fill="#3D3D3D"/>
<path d="M13.963 18.4051H13.1915C13.1915 19.2069 12.541 19.8439 11.7619 19.8439V21.3727C13.4108 21.3727 14.7345 20.0313 14.7345 18.4051H13.963ZM11.7619 20.6083V19.8439C10.9828 19.8439 10.3323 19.2069 10.3323 18.4051H8.78931C8.78931 20.0388 10.113 21.3727 11.7619 21.3727V20.6083ZM9.56839 18.4051H10.3399C10.3399 17.5957 10.9904 16.9663 11.7695 16.9663V15.4375C10.1206 15.4375 8.79687 16.7789 8.79687 18.4051H9.56839ZM11.7619 16.2019V16.9663C12.541 16.9663 13.1915 17.6032 13.1915 18.4051H14.7345C14.7345 16.7714 13.4108 15.4375 11.7619 15.4375V16.2019Z" fill="#3D3D3D"/>
<path d="M26.4207 18.4051H25.6491C25.6491 19.2069 24.9986 19.8439 24.2196 19.8439V21.3727C25.8685 21.3727 27.1922 20.0313 27.1922 18.4051H26.4207ZM24.2271 20.6083V19.8439C23.448 19.8439 22.7975 19.2069 22.7975 18.4051H21.2545C21.2545 20.0388 22.5782 21.3727 24.2271 21.3727V20.6083ZM22.026 18.4051H22.7975C22.7975 17.5957 23.448 16.9663 24.2271 16.9663V15.4375C22.5782 15.4375 21.2545 16.7789 21.2545 18.4051H22.026ZM24.2271 16.2019V16.9663C25.0062 16.9663 25.6567 17.6032 25.6567 18.4051H27.1997C27.1997 16.7714 25.8761 15.4375 24.2271 15.4375V16.2019Z" fill="#3D3D3D"/>
<path d="M26.4207 18.4051H25.6491C25.6491 19.2069 24.9986 19.8439 24.2196 19.8439V21.3727C25.8685 21.3727 27.1922 20.0313 27.1922 18.4051H26.4207ZM24.2271 20.6083V19.8439C23.448 19.8439 22.7975 19.2069 22.7975 18.4051H21.2545C21.2545 20.0388 22.5782 21.3727 24.2271 21.3727V20.6083ZM22.026 18.4051H22.7975C22.7975 17.5957 23.448 16.9663 24.2271 16.9663V15.4375C22.5782 15.4375 21.2545 16.7789 21.2545 18.4051H22.026ZM24.2271 16.2019V16.9663C25.0062 16.9663 25.6567 17.6032 25.6567 18.4051H27.1997C27.1997 16.7714 25.8761 15.4375 24.2271 15.4375V16.2019Z" fill="#3D3D3D"/>
<path d="M22.9034 5.17063L23.5312 4.72849L23.3043 4.41374H22.911V5.17812L22.9034 5.17063ZM26.2467 9.77939L25.6189 10.229L25.7701 10.4389L26.0198 10.5138L26.2467 9.78688V9.77939ZM30.8228 11.2032H31.5943V10.6412L31.0573 10.4763L30.8304 11.2032H30.8228ZM30.8228 19.1693H31.5943V18.4049H30.8228V19.1693ZM5.89981 18.4049H5.1283V19.1693H5.89981V18.4049ZM12.8132 5.17063V5.93501H22.9034V4.40625H12.8132V5.17063ZM22.9034 5.17063L22.2756 5.62026L25.6189 10.229L26.2467 9.77939L26.8745 9.32975L23.5312 4.72099L22.9034 5.16314V5.17063ZM26.2467 9.77939L26.0198 10.5063L30.5883 11.9227L30.8228 11.1957L31.0497 10.4688L26.4812 9.05248L26.2542 9.77939H26.2467ZM30.8228 11.2032H30.0513V18.4124H31.5943V11.2032H30.8228ZM30.8228 18.4049V17.6405H26.4736V19.1693H30.8228V18.4049ZM21.6781 18.4049V17.6405H13.8722V19.1693H21.6781V18.4049ZM9.76496 18.4049V17.6405H5.89981V19.1693H9.76496V18.4049ZM5.89981 18.4049H6.67133V12.5596H5.1283V18.4049H5.89981Z" fill="#3D3D3D"/>
<path d="M5.89981 6.00281H5.1283V6.24262L5.26445 6.43746L5.89981 6.00281ZM5.89981 2.96777H5.1283V6.00281H6.67133V2.96777H5.89981ZM5.89981 6.00281L5.26445 6.43746L6.73184 8.55074L7.36721 8.1161L8.00257 7.68145L6.53518 5.56816L5.89981 6.00281Z" fill="#ED1C24"/>
</g>
<defs>
<clipPath id="clip0_239_400">
<rect width="31.5944" height="21.3727" fill="white"/>
</clipPath>
</defs>
</svg>
