<svg width="174" height="189" viewBox="0 0 174 189" fill="none" xmlns="http://www.w3.org/2000/svg">
<path d="M132.246 141.669H113.48C113.547 142.041 113.637 142.414 113.727 142.778H169.898C169.988 142.414 170.07 142.041 170.145 141.669H132.246Z" fill="#ED1D24"/>
<path d="M132.246 146.241H114.983C115.163 146.613 115.357 146.985 115.559 147.35H168.066C168.268 146.985 168.462 146.613 168.641 146.241H132.246Z" fill="#ED1D24"/>
<path d="M132.74 150.813H117.998C118.319 151.186 118.663 151.558 119.015 151.923H164.633C164.984 151.558 165.328 151.193 165.642 150.813H132.732H132.74Z" fill="#ED1D24"/>
<path d="M136.397 155.378H123.114C123.667 155.773 124.228 156.137 124.796 156.487H158.888C159.457 156.137 160.018 155.773 160.571 155.378H136.397Z" fill="#ED1D24"/>
<path d="M141.812 161.059C144.984 161.059 147.968 160.679 150.765 159.95H132.919C135.709 160.679 138.663 161.059 141.805 161.059" fill="#ED1D24"/>
<path d="M25.0715 1.10986H0V5.20542H5.94625V155.855H0V159.95H31.0177V155.855H25.0715V1.10986Z" fill="#ED1D24"/>
<path d="M141.812 0C138.671 0 135.709 0.37977 132.927 1.10952H150.766C147.961 0.37977 144.984 0 141.812 0Z" fill="#ED1D24"/>
<path d="M147.22 5.68179H160.571C160.025 5.28713 159.464 4.92225 158.888 4.57227H124.796C124.228 4.92225 123.659 5.28713 123.106 5.68179H147.213H147.22Z" fill="#ED1D24"/>
<path d="M150.878 10.2462H165.65C165.328 9.87392 164.991 9.5016 164.64 9.13672H119.022C118.671 9.5016 118.327 9.86647 118.005 10.2462H150.885H150.878Z" fill="#ED1D24"/>
<path d="M170.489 22.853H113.128C113.128 22.9573 113.121 23.0541 113.121 23.1583V23.9626H170.497V23.1583C170.497 23.0541 170.497 22.9573 170.489 22.853Z" fill="#ED1D24"/>
<path d="M132.246 36.562H113.121V37.6715H132.246H151.371H170.497V36.562H151.371H132.246Z" fill="#ED1D24"/>
<path d="M132.246 50.271H113.121V51.3805H132.246H151.371H170.497V50.271H151.371H132.246Z" fill="#ED1D24"/>
<path d="M151.371 63.98H115.051C115.23 64.3523 115.41 64.7246 115.619 65.0895H168.013C168.215 64.7246 168.395 64.3523 168.574 63.98H151.371Z" fill="#ED1D24"/>
<path d="M126.15 77.689C125.455 78.0464 124.782 78.4113 124.146 78.7985H159.554C158.918 78.4113 158.253 78.0464 157.564 77.689H126.15Z" fill="#ED1D24"/>
<path d="M113.607 92.5075H170.018C169.935 92.1352 169.846 91.7628 169.748 91.3979H113.884C113.786 91.7628 113.689 92.1352 113.614 92.5075" fill="#ED1D24"/>
<path d="M132.246 105.115H113.121V106.217H132.246H151.371H170.497V105.115H151.371H132.246Z" fill="#ED1D24"/>
<path d="M132.246 118.824H113.121V119.933H132.246H151.371H170.497V118.824H151.371H132.246Z" fill="#ED1D24"/>
<path d="M132.246 132.532H113.121V133.641H132.246H151.371H170.497V132.532H151.371H132.246Z" fill="#ED1D24"/>
<path d="M151.371 14.8185H168.641C168.462 14.4462 168.275 14.0739 168.066 13.709H115.559C115.357 14.0739 115.163 14.4462 114.983 14.8185H151.371Z" fill="#ED1D24"/>
<path d="M132.246 27.418H113.121V28.5275H132.246H151.371H170.497V27.418H151.371H132.246Z" fill="#ED1D24"/>
<path d="M132.246 41.1343H113.121V42.2364H132.246H151.371H170.497V41.1343H151.371H132.246Z" fill="#ED1D24"/>
<path d="M132.246 54.8433H113.121V54.9475C113.121 55.29 113.143 55.6177 113.158 55.9528H170.467C170.482 55.6177 170.504 55.29 170.504 54.9475V54.8433H132.254H132.246Z" fill="#ED1D24"/>
<path d="M150.601 68.5518H118.125C118.469 68.9315 118.828 69.2964 119.209 69.6613H164.46C164.834 69.3039 165.193 68.9315 165.537 68.5518H150.608H150.601Z" fill="#ED1D24"/>
<path d="M118.386 83.3703H165.276C164.924 82.9905 164.558 82.6256 164.169 82.2607H119.501C119.112 82.6256 118.738 82.9905 118.386 83.3703Z" fill="#ED1D24"/>
<path d="M113.121 97.0792H170.489C170.489 96.7069 170.467 96.342 170.452 95.9697H113.158C113.143 96.3346 113.121 96.6995 113.121 97.0792Z" fill="#ED1D24"/>
<path d="M132.246 109.679H113.121V110.788H132.246H151.371H170.497V109.679H151.371H132.246Z" fill="#ED1D24"/>
<path d="M132.246 123.388H113.121V124.497H132.246H151.371H170.497V123.388H151.371H132.246Z" fill="#ED1D24"/>
<path d="M132.246 137.104H113.121V137.916C113.121 138.02 113.121 138.117 113.128 138.214H170.489C170.489 138.11 170.497 138.013 170.497 137.916V137.104H132.246Z" fill="#ED1D24"/>
<path d="M151.371 19.3908H170.145C170.078 19.0185 169.995 18.6461 169.898 18.2812H113.727C113.637 18.6461 113.547 19.0185 113.48 19.3908H151.379H151.371Z" fill="#ED1D24"/>
<path d="M132.246 31.9897H113.121V33.0993H132.246H151.371H170.497V31.9897H151.371H132.246Z" fill="#ED1D24"/>
<path d="M132.246 45.6987H113.121V46.8083H132.246H151.371H170.497V45.6987H151.371H132.246Z" fill="#ED1D24"/>
<path d="M151.371 59.4077H113.555C113.629 59.78 113.704 60.1524 113.794 60.5172H169.816C169.906 60.1524 169.988 59.78 170.055 59.4077H151.364H151.371Z" fill="#ED1D24"/>
<path d="M145.949 73.124H123.824C124.467 73.5112 125.14 73.8761 125.843 74.2336H157.871C158.567 73.8761 159.232 73.5112 159.875 73.124H145.949Z" fill="#ED1D24"/>
<path d="M115.2 87.9425H168.425C168.238 87.5702 168.036 87.1979 167.826 86.833H115.806C115.589 87.1979 115.387 87.5628 115.2 87.9425Z" fill="#ED1D24"/>
<path d="M132.246 100.542H113.121V101.652H132.246H151.371H170.497V100.542H151.371H132.246Z" fill="#ED1D24"/>
<path d="M132.246 114.251H113.121V115.361H132.246H151.371H170.497V114.251H151.371H132.246Z" fill="#ED1D24"/>
<path d="M132.246 127.96H113.121V129.069H132.246H151.371H170.497V127.96H151.371H132.246Z" fill="#ED1D24"/>
<path d="M79.7695 147.879C79.7695 150.389 78.8346 152.533 76.9721 154.306C75.1097 156.078 72.8509 156.964 70.2106 156.964C67.5703 156.964 65.3115 156.078 63.4491 154.306C61.5867 152.533 60.6517 150.389 60.6517 147.879V13.1802C60.6517 10.6708 61.5867 8.5262 63.4491 6.75394C65.3115 4.98168 67.5703 4.09556 70.2106 4.09556C72.8509 4.09556 75.1097 4.98168 76.9721 6.75394C78.8346 8.5262 79.7695 10.6708 79.7695 13.1802V147.879ZM90.4952 6.81352C84.9005 2.27117 78.1315 0 70.2031 0C62.2748 0 55.6105 2.27117 49.9709 6.81352C44.3314 11.3559 41.519 16.7992 41.519 23.1511V137.909C41.519 144.26 44.3388 149.704 49.9709 154.246C55.603 158.788 62.3496 161.06 70.2031 161.06C78.0567 161.06 84.9005 158.788 90.4952 154.246C96.0899 149.704 98.8947 144.26 98.8947 137.909V23.1511C98.8947 16.7992 96.0974 11.3559 90.4952 6.81352Z" fill="#ED1D24"/>
<path d="M13.5381 172.908L8.33232 182.126V188.024H5.36293V182.126L0.172119 172.908H3.55288L6.84388 179.2L10.1498 172.908H13.5306H13.5381Z" fill="white"/>
<path d="M19.7161 185.172H26.1111V188.024H16.7168V172.908H25.9989V175.76H19.7086V178.977H25.4529V181.784H19.7086V185.172H19.7161Z" fill="white"/>
<path d="M40.1504 188.024L39.1856 185.306H32.9476L32.0351 188.024H28.804L34.1144 172.908H37.8243L43.1797 188.024H40.143H40.1504ZM33.92 182.521H38.1908L35.9993 176.348L33.92 182.521Z" fill="white"/>
<path d="M54.7281 188.024L51.6614 182.774H49.3951V188.024H46.4033V172.908H52.4767C53.8829 172.908 55.0721 173.399 56.0594 174.375C57.0392 175.35 57.5329 176.534 57.5329 177.919C57.5329 178.857 57.2636 179.721 56.7326 180.518C56.2015 181.315 55.491 181.918 54.6084 182.32L57.9667 188.024H54.7355H54.7281ZM49.3877 175.693V180.161H52.4692C53.0302 180.161 53.5164 179.945 53.9203 179.505C54.3242 179.066 54.5261 178.537 54.5261 177.919C54.5261 177.301 54.3242 176.772 53.9203 176.341C53.5164 175.909 53.0302 175.693 52.4692 175.693H49.3877Z" fill="white"/>
<path d="M72.6863 188.329C70.3004 188.329 68.6324 187.369 67.675 185.455L70.2555 183.988C70.7342 184.941 71.542 185.41 72.6863 185.41C73.4792 185.41 74.0775 185.224 74.4665 184.852C74.8554 184.48 75.0499 183.966 75.0499 183.318V172.908H78.0193V183.318C78.0193 184.904 77.5181 186.133 76.5234 187.011C75.5286 187.89 74.2496 188.329 72.6863 188.329Z" fill="white"/>
<path d="M95.2224 186.05C93.6891 187.569 91.8267 188.329 89.6277 188.329C87.4287 188.329 85.5663 187.569 84.0405 186.05C82.5146 184.531 81.7517 182.67 81.7517 180.466C81.7517 178.261 82.5146 176.4 84.0405 174.881C85.5663 173.362 87.4287 172.602 89.6277 172.602C91.8267 172.602 93.6891 173.362 95.2224 174.881C96.7557 176.4 97.5186 178.261 97.5186 180.466C97.5186 182.67 96.7557 184.531 95.2224 186.05ZM86.1347 184.017C87.0772 184.948 88.2365 185.41 89.6277 185.41C91.0189 185.41 92.1782 184.948 93.1206 184.017C94.0631 183.087 94.5343 181.903 94.5343 180.466C94.5343 179.028 94.0631 177.837 93.1206 176.899C92.1782 175.96 91.0189 175.499 89.6277 175.499C88.2365 175.499 87.0772 175.968 86.1347 176.899C85.1923 177.829 84.7286 179.021 84.7286 180.466C84.7286 181.91 85.1998 183.087 86.1347 184.017Z" fill="white"/>
<path d="M106.913 188.329C105.222 188.329 103.831 187.852 102.747 186.906C101.662 185.953 101.116 184.68 101.116 183.086V172.915H104.086V182.848C104.086 183.637 104.31 184.263 104.766 184.725C105.222 185.186 105.933 185.417 106.905 185.417C107.878 185.417 108.588 185.186 109.045 184.725C109.501 184.263 109.725 183.637 109.725 182.848V172.915H112.717V183.086C112.717 184.687 112.171 185.961 111.086 186.906C110.002 187.86 108.603 188.329 106.898 188.329H106.913Z" fill="white"/>
<path d="M125.455 188.024L122.388 182.774H120.122V188.024H117.13V172.908H123.203C124.609 172.908 125.799 173.399 126.786 174.375C127.766 175.35 128.259 176.534 128.259 177.919C128.259 178.857 127.99 179.721 127.459 180.518C126.928 181.315 126.218 181.918 125.335 182.32L128.693 188.024H125.462H125.455ZM120.122 175.693V180.161H123.203C123.764 180.161 124.25 179.945 124.654 179.505C125.058 179.066 125.26 178.537 125.26 177.919C125.26 177.301 125.058 176.772 124.654 176.341C124.25 175.909 123.764 175.693 123.203 175.693H120.122Z" fill="white"/>
<path d="M140.967 172.908H143.959V188.024H141.685L135.178 178.783V188.024H132.186V172.908H134.46L140.967 182.119V172.908Z" fill="white"/>
<path d="M151.506 185.172H157.901V188.024H148.507V172.908H157.789V175.76H151.498V178.977H157.243V181.784H151.498V185.172H151.506Z" fill="white"/>
<path d="M173.743 172.908L168.537 182.126V188.024H165.568V182.126L160.384 172.908H163.765L167.056 179.2L170.362 172.908H173.743Z" fill="white"/>
</svg>
