<svg width="16" height="15" viewBox="0 0 16 15" fill="none" xmlns="http://www.w3.org/2000/svg">
<path d="M2.09225 12.8685C1.43208 12.2019 0.918333 11.4396 0.551 10.5818C0.183666 9.72379 0 8.83671 0 7.92054C0 6.99871 0.177583 6.07979 0.53275 5.16379C0.887917 4.24779 1.45775 3.39746 2.24225 2.61279C2.87692 1.97829 3.68108 1.47512 4.65475 1.10329C5.62858 0.731456 6.68692 0.459955 7.82975 0.288789C8.97275 0.117622 10.1574 0.0230392 11.3837 0.00503922C12.6099 -0.0127941 13.791 0.0167053 14.927 0.0935387C15.009 1.19354 15.041 2.35379 15.023 3.57429C15.0052 4.79479 14.9062 5.97846 14.726 7.12529C14.5458 8.27212 14.2708 9.33621 13.901 10.3175C13.5312 11.299 13.0334 12.1026 12.4078 12.7283C11.6398 13.509 10.8112 14.0779 9.922 14.435C9.033 14.792 8.14067 14.9705 7.245 14.9705C6.306 14.9705 5.3775 14.7869 4.4595 14.4195C3.54167 14.0522 2.75258 13.5352 2.09225 12.8685ZM3.777 12.9398C4.29867 13.2873 4.865 13.546 5.476 13.7158C6.08683 13.8856 6.67817 13.9705 7.25 13.9705C8.02533 13.9705 8.79225 13.8195 9.55075 13.5175C10.3093 13.2157 11.0238 12.7167 11.6943 12.0205C11.9919 11.7205 12.2937 11.2997 12.5995 10.758C12.9053 10.2164 13.1698 9.50804 13.393 8.63304C13.6162 7.75804 13.7857 6.69971 13.9015 5.45804C14.0172 4.21637 14.0462 2.73721 13.9885 1.02054C13.1718 0.987206 12.2446 0.981123 11.2068 1.00229C10.1689 1.02346 9.13208 1.11221 8.09625 1.26854C7.06025 1.42504 6.08717 1.66354 5.177 1.98404C4.26667 2.30454 3.53908 2.73721 2.99425 3.28204C2.25708 4.01921 1.74042 4.78329 1.44425 5.57429C1.14808 6.36546 1 7.10271 1 7.78604C1 8.69237 1.18108 9.53879 1.54325 10.3253C1.90542 11.1118 2.34358 11.7256 2.85775 12.1668C3.27558 10.9873 3.92175 9.85554 4.79625 8.77154C5.67058 7.68754 6.89367 6.67696 8.4655 5.73979C7.31667 6.73846 6.35092 7.80096 5.56825 8.92729C4.78558 10.0536 4.1885 11.3911 3.777 12.9398Z" fill="#9B9B9B"/>
</svg>
