<svg width="18" height="18" viewBox="0 0 18 18" fill="none" xmlns="http://www.w3.org/2000/svg">
<path d="M8.4845 15.6155H9.4655V14.4423C10.1833 14.3821 10.8711 14.1244 11.5288 13.6693C12.1866 13.2141 12.5155 12.5077 12.5155 11.55C12.5155 10.85 12.3027 10.2532 11.877 9.7595C11.4513 9.266 10.6385 8.80258 9.4385 8.36925C8.33583 7.98458 7.63133 7.65442 7.325 7.37875C7.01867 7.10325 6.8655 6.71033 6.8655 6.2C6.8655 5.68967 7.0645 5.26467 7.4625 4.925C7.8605 4.58533 8.38967 4.4155 9.05 4.4155C9.55767 4.4155 9.98075 4.53183 10.3193 4.7645C10.6578 4.99717 10.9321 5.29233 11.1423 5.65L12.0115 5.30775C11.7768 4.82692 11.4329 4.42433 10.9798 4.1C10.5266 3.77567 10.0385 3.59492 9.5155 3.55775V2.3845H8.5345V3.55775C7.66283 3.70258 7.00325 4.02758 6.55575 4.53275C6.10825 5.03792 5.8845 5.59367 5.8845 6.2C5.8845 6.91917 6.1105 7.49483 6.5625 7.927C7.0145 8.359 7.777 8.76925 8.85 9.15775C9.92567 9.55392 10.6484 9.91158 11.0182 10.2308C11.3881 10.5499 11.573 10.9897 11.573 11.55C11.573 12.2538 11.3163 12.7606 10.803 13.0703C10.2895 13.3798 9.7385 13.5345 9.15 13.5345C8.57433 13.5345 8.05475 13.3669 7.59125 13.0318C7.12792 12.6964 6.75775 12.2192 6.48075 11.6L5.6 11.9808C5.88467 12.6654 6.26642 13.1991 6.74525 13.5818C7.22408 13.9644 7.80383 14.2346 8.4845 14.3923V15.6155ZM9 18C7.75767 18 6.58908 17.7632 5.49425 17.2895C4.39942 16.8157 3.44683 16.1737 2.6365 15.3635C1.82633 14.5532 1.18433 13.6006 0.7105 12.5058C0.236833 11.4109 0 10.2423 0 9C0 7.75767 0.236833 6.58908 0.7105 5.49425C1.18433 4.39942 1.82633 3.44683 2.6365 2.6365C3.44683 1.82633 4.39942 1.18433 5.49425 0.7105C6.58908 0.236833 7.75767 0 9 0C10.2423 0 11.4109 0.236833 12.5057 0.7105C13.6006 1.18433 14.5532 1.82633 15.3635 2.6365C16.1737 3.44683 16.8157 4.39942 17.2895 5.49425C17.7632 6.58908 18 7.75767 18 9C18 10.2423 17.7632 11.4109 17.2895 12.5058C16.8157 13.6006 16.1737 14.5532 15.3635 15.3635C14.5532 16.1737 13.6006 16.8157 12.5057 17.2895C11.4109 17.7632 10.2423 18 9 18ZM9 17C11.2333 17 13.125 16.225 14.675 14.675C16.225 13.125 17 11.2333 17 9C17 6.76667 16.225 4.875 14.675 3.325C13.125 1.775 11.2333 1 9 1C6.76667 1 4.875 1.775 3.325 3.325C1.775 4.875 1 6.76667 1 9C1 11.2333 1.775 13.125 3.325 14.675C4.875 16.225 6.76667 17 9 17Z" fill="#9B9B9B"/>
</svg>
