<svg width="18" height="18" viewBox="0 0 18 18" fill="none" xmlns="http://www.w3.org/2000/svg">
<path d="M10.0389 6.78365C9.92919 6.89333 9.75116 6.89333 9.64147 6.78365C9.53178 6.67396 9.53178 6.49592 9.64147 6.38623L12.3795 3.64822C12.2419 3.18668 12.2234 2.69646 12.3263 2.22817C12.4385 1.71516 12.6934 1.22831 13.0908 0.830052C13.3836 0.537266 13.7261 0.321263 14.0923 0.182886C14.472 0.0394459 14.8753 -0.0196175 15.2744 0.0056954C15.4288 0.0158206 15.547 0.148291 15.5368 0.303544C15.5318 0.378639 15.498 0.445296 15.4466 0.492547L14.3083 1.63416L14.3117 2.79855L15.1386 3.62038L16.3038 3.617L17.4437 2.4737C17.5526 2.36401 17.7306 2.36317 17.8403 2.47286C17.8909 2.52348 17.9179 2.58845 17.9222 2.65427C17.9475 3.05337 17.8884 3.45753 17.7458 3.83638C17.6074 4.20257 17.3923 4.54599 17.0986 4.83877C16.7012 5.23618 16.2135 5.49184 15.7005 5.60322C15.2314 5.70532 14.742 5.6876 14.2805 5.55006L11.8513 7.97926C11.7416 8.08895 11.5636 8.08895 11.4539 7.97926C11.3442 7.86957 11.3442 7.69153 11.4539 7.58184L14.002 5.03368C14.0771 4.95605 14.1944 4.92483 14.3024 4.96534C14.7125 5.11721 15.158 5.14759 15.5824 5.05477C15.9916 4.96534 16.3823 4.76114 16.7012 4.44136C16.9375 4.2051 17.1113 3.93088 17.221 3.63894C17.248 3.56806 17.2708 3.4955 17.2902 3.42209L16.6194 4.09457C16.5688 4.1452 16.4987 4.17726 16.4211 4.17726L15.0373 4.18148C14.9614 4.18485 14.8846 4.15785 14.8264 4.10048L13.835 3.11496C13.7843 3.06434 13.7523 2.9943 13.7523 2.91668L13.7481 1.53291C13.7447 1.45697 13.7717 1.38019 13.8291 1.32197L14.51 0.639362C14.4357 0.658768 14.3623 0.682393 14.2898 0.709394C13.9987 0.819083 13.7244 0.992898 13.4882 1.22915C13.1692 1.54809 12.9642 1.93876 12.8748 2.34798C12.7828 2.77071 12.8115 3.21453 12.9625 3.62375C13.0013 3.72416 12.9802 3.84313 12.8992 3.92413L10.038 6.78533L10.0389 6.78365ZM14.9563 14.5581L16.3899 14.7834C16.4692 14.796 16.535 14.8399 16.5772 14.9006L17.3189 15.9739C17.3973 16.087 17.3805 16.238 17.2868 16.3317L17.2877 16.3325L16.3334 17.2868C16.2304 17.3897 16.0676 17.3965 15.957 17.3062L14.9023 16.5772C14.8331 16.53 14.7926 16.4565 14.7834 16.3798L14.5598 14.9563L9.71488 10.1114L8.63824 11.1881C8.52855 11.2978 8.35051 11.2978 8.24082 11.1881L7.46794 10.4152C7.39706 10.3443 7.37175 10.2448 7.39284 10.1528C7.41225 10.0178 7.40128 9.87941 7.35993 9.74863C7.31859 9.61869 7.24518 9.4955 7.13971 9.39087C7.03509 9.28625 6.9119 9.21284 6.78196 9.17065C6.64611 9.12678 6.50098 9.11665 6.36008 9.14028C6.26726 9.15546 6.17867 9.1234 6.11707 9.06181L6.11623 9.06265L0.808958 3.75538C0.576923 3.52334 0.460484 3.2179 0.460484 2.91246C0.460484 2.60702 0.576923 2.30157 0.808958 2.06954L2.07123 0.80727C2.30326 0.575236 2.6087 0.458796 2.91415 0.458796C3.21959 0.458796 3.52503 0.575236 3.75707 0.80727L9.06434 6.11454C9.13521 6.18542 9.16053 6.28498 9.13943 6.37695C9.12002 6.51195 9.13099 6.65033 9.17234 6.78111C9.21368 6.91105 9.28709 7.03424 9.39256 7.13887C9.49719 7.2435 9.62038 7.3169 9.75032 7.35909C9.88616 7.40297 10.0313 7.41309 10.1722 7.38947C10.265 7.37428 10.3536 7.40634 10.4152 7.46794L10.416 7.46709L11.1889 8.23998C11.2986 8.34967 11.2986 8.5277 11.1889 8.63739L10.1123 9.71403L14.9572 14.5589L14.9563 14.5581ZM16.184 15.3183L15.1571 15.1572L15.3183 16.184L16.0996 16.724L16.7232 16.1005L16.1832 15.3192L16.184 15.3183ZM3.32506 2.88546C3.21537 2.77577 3.21537 2.59774 3.32506 2.48805C3.43475 2.37836 3.61278 2.37836 3.72247 2.48805L7.52869 6.29426C7.63838 6.40395 7.63838 6.58199 7.52869 6.69167C7.419 6.80136 7.24096 6.80136 7.13127 6.69167L3.32506 2.88546ZM2.48805 3.72247C2.37836 3.61278 2.37836 3.43475 2.48805 3.32506C2.59774 3.21537 2.77577 3.21537 2.88546 3.32506L6.69167 7.13128C6.80136 7.24096 6.80136 7.419 6.69167 7.52869C6.58198 7.63838 6.40395 7.63838 6.29426 7.52869L2.48805 3.72247ZM2.46695 1.20384L1.20468 2.46611C1.08234 2.58845 1.02159 2.74961 1.02159 2.91162C1.02159 3.07362 1.08234 3.23478 1.20468 3.35712L6.41661 8.56905C6.59633 8.55808 6.77774 8.58086 6.95071 8.6357C7.16503 8.70489 7.36668 8.82302 7.53459 8.99177C7.70335 9.16053 7.82147 9.36134 7.89066 9.57566C7.94635 9.74947 7.96829 9.93088 7.95732 10.1098L8.43658 10.589L10.589 8.43658L10.1098 7.95732C9.93004 7.96829 9.74863 7.94551 9.57566 7.89066C9.36134 7.82147 9.15968 7.70335 8.99177 7.53459C8.82302 7.36584 8.70489 7.16503 8.6357 6.95071C8.58002 6.7769 8.55808 6.59549 8.56905 6.41661L3.35712 1.20468C3.23478 1.08234 3.07362 1.02159 2.91162 1.02159C2.74961 1.02159 2.58845 1.08234 2.46611 1.20468L2.46695 1.20384ZM7.61813 11.4159C7.72782 11.3062 7.90585 11.3062 8.01554 11.4159C8.12523 11.5256 8.12523 11.7036 8.01554 11.8133L5.54922 14.2796C5.68675 14.7412 5.70532 15.2314 5.60238 15.6997C5.49016 16.2127 5.23534 16.6996 4.83793 17.0978C4.54514 17.3906 4.20173 17.6066 3.83554 17.745C3.45584 17.8884 3.05252 17.9466 2.65342 17.9213C2.49902 17.9112 2.38089 17.7787 2.39101 17.6235C2.39608 17.5484 2.42983 17.4817 2.4813 17.4345L3.61616 16.3021L3.61953 15.1369L2.79771 14.31L1.63331 14.3066L0.483265 15.4533C0.373576 15.5622 0.195542 15.5622 0.0866967 15.4525C0.0369146 15.4018 0.00991422 15.3377 0.0056954 15.2719C-0.0196175 14.8728 0.0394459 14.4695 0.182886 14.0898C0.321263 13.7236 0.536422 13.381 0.830052 13.0882C1.22746 12.6908 1.71516 12.4352 2.22817 12.3238C2.6973 12.2217 3.18668 12.2394 3.64822 12.377L6.41576 9.60941C6.52545 9.49972 6.70349 9.49972 6.81318 9.60941C6.92287 9.7191 6.92287 9.89713 6.81318 10.0068L3.92582 12.8942C3.85072 12.9718 3.73344 13.003 3.62544 12.9625C3.21537 12.8106 2.76986 12.7803 2.34545 12.8731C1.93623 12.9625 1.54556 13.1667 1.22662 13.4865C0.990367 13.7228 0.817396 13.997 0.706863 14.2881C0.679862 14.3606 0.656237 14.434 0.63683 14.5083L1.31943 13.8274C1.37006 13.7768 1.44009 13.7455 1.51688 13.7455L2.90233 13.7498C2.97827 13.7464 3.05506 13.7742 3.11328 13.8324L4.09879 14.8239C4.14942 14.8745 4.18064 14.9445 4.18064 15.0213L4.17642 16.4068C4.17979 16.4827 4.15195 16.5595 4.09373 16.6177L3.42125 17.2885C3.49466 17.2691 3.56638 17.2455 3.6381 17.2193C3.93004 17.1096 4.20426 16.9358 4.44051 16.6996C4.75946 16.3806 4.96449 15.9899 5.05393 15.5807C5.1459 15.158 5.11721 14.7142 4.96618 14.3049C4.92737 14.2045 4.94846 14.0856 5.02946 14.0046L7.61897 11.4151L7.61813 11.4159Z" fill="#9B9B9B"/>
</svg>
