<svg width="21" height="21" viewBox="0 0 21 21" fill="none" xmlns="http://www.w3.org/2000/svg">
<path d="M11.1537 8.96156V2.71156H12.4037V6.82688L19.2306 0L20.1153 0.884687L13.2884 7.71156H17.4037V8.96156H11.1537ZM18.6634 20.1153C16.5561 20.1153 14.3959 19.5877 12.1828 18.5325C9.96969 17.4771 7.91354 15.9958 6.01438 14.0887C4.11542 12.1819 2.63823 10.1258 1.58281 7.92063C0.527604 5.71542 0 3.55917 0 1.45188C0 1.07 0.125 0.75177 0.375 0.497187C0.625 0.242603 0.9375 0.115313 1.3125 0.115313H4.40375C4.74354 0.115313 5.04 0.222292 5.29313 0.436251C5.54646 0.650209 5.71802 0.924687 5.80781 1.25969L6.42781 4.24031C6.48552 4.58969 6.4751 4.895 6.39656 5.15625C6.31802 5.4175 6.17938 5.63146 5.98063 5.79812L3.23812 8.35563C3.75083 9.28667 4.31771 10.1517 4.93875 10.9506C5.55979 11.7496 6.22208 12.5064 6.92563 13.2209C7.65146 13.947 8.43271 14.6221 9.26937 15.2463C10.1058 15.8704 11.0241 16.4598 12.0241 17.0144L14.6972 14.2931C14.9007 14.0735 15.1295 13.929 15.3834 13.8594C15.6374 13.7896 15.9182 13.7755 16.2259 13.8172L18.8556 14.3556C19.1954 14.439 19.4711 14.6101 19.6828 14.8691C19.8943 15.1278 20 15.4247 20 15.7597V18.8028C20 19.1778 19.8727 19.4903 19.6181 19.7403C19.3635 19.9903 19.0453 20.1153 18.6634 20.1153ZM2.65156 7.1825L5.05063 4.97594C5.13063 4.91177 5.18271 4.82365 5.20688 4.71156C5.23083 4.59927 5.22677 4.4951 5.19469 4.39906L4.63937 1.75C4.60729 1.62167 4.55125 1.52552 4.47125 1.46156C4.39104 1.3974 4.28687 1.36531 4.15875 1.36531H1.59375C1.4975 1.36531 1.4174 1.3974 1.35344 1.46156C1.28927 1.52552 1.25719 1.60563 1.25719 1.70188C1.28115 2.55604 1.415 3.44781 1.65875 4.37719C1.90229 5.30677 2.23323 6.24188 2.65156 7.1825ZM13.2141 17.6009C14.0584 18.0193 14.9586 18.3285 15.9147 18.5287C16.8705 18.7292 17.7034 18.8366 18.4134 18.8509C18.5097 18.8509 18.5898 18.8189 18.6537 18.7547C18.7179 18.6905 18.75 18.6104 18.75 18.5144V16.0047C18.75 15.8766 18.7179 15.7724 18.6537 15.6922C18.5898 15.6122 18.4936 15.5561 18.3653 15.5241L16.0528 15.0503C15.9568 15.0182 15.8727 15.0143 15.8006 15.0384C15.7283 15.0624 15.6522 15.1145 15.5722 15.1947L13.2141 17.6009Z" fill="#ED1C24"/>
</svg>
