<svg width="234" height="34" viewBox="0 0 234 34" fill="none" xmlns="http://www.w3.org/2000/svg">
<mask id="mask0_158_551" style="mask-type:luminance" maskUnits="userSpaceOnUse" x="0" y="0" width="234" height="34">
<path d="M234 0H0V34H234V0Z" fill="white"/>
</mask>
<g mask="url(#mask0_158_551)">
<path d="M161.682 8.59039H160.023V11.8809H158.364V13.5907H160.023V23.0128C160.023 24.051 160.338 24.8827 160.978 25.5026C161.613 26.1224 162.402 26.4324 163.347 26.4324H164.616V24.7226H163.347C162.857 24.7226 162.457 24.5779 162.152 24.2938C161.842 24.0097 161.687 23.581 161.687 23.0128V13.5907H164.616V11.8809H161.687V8.59039H161.682Z" fill="#030303"/>
<path d="M172.358 13.1155C173.497 13.1155 174.542 13.4357 175.496 14.0711C176.451 14.7065 177.166 15.5433 177.655 16.5868H179.44C178.92 15.0784 178.01 13.849 176.716 12.8934C175.421 11.9377 173.972 11.4625 172.358 11.4625C170.294 11.4625 168.529 12.2115 167.075 13.7095C165.621 15.2075 164.891 17.0207 164.891 19.1489C164.891 21.2771 165.621 23.0954 167.075 24.6038C168.529 26.1121 170.294 26.8663 172.358 26.8663C173.967 26.8663 175.421 26.3911 176.716 25.4354C178.005 24.4798 178.915 23.2401 179.44 21.7162H177.655C177.166 22.7545 176.451 23.5965 175.496 24.2422C174.542 24.8879 173.502 25.2081 172.358 25.2081C170.763 25.2081 169.404 24.6141 168.285 23.426C167.16 22.2379 166.6 20.8122 166.6 19.1541C166.6 17.4959 167.16 16.0754 168.285 14.8976C169.409 13.7147 170.763 13.1258 172.358 13.1258V13.1155Z" fill="#030303"/>
<path d="M186.956 11.4573C185.897 11.4573 184.912 11.7569 183.992 12.351C183.073 12.945 182.443 13.6114 182.103 14.35H182.053V7.59343H180.394V26.4375H182.053V17.4701C182.083 16.2975 182.588 15.2798 183.568 14.4172C184.542 13.5545 185.627 13.1258 186.811 13.1258C187.996 13.1258 188.96 13.508 189.69 14.2674C190.42 15.0267 190.789 16.0289 190.789 17.2686V26.4427H192.449V17.2686C192.449 15.5278 191.964 14.1228 190.994 13.0586C190.025 11.9945 188.68 11.4625 186.956 11.4625" fill="#030303"/>
<path d="M200.85 11.4573C198.801 11.4573 197.047 12.2063 195.592 13.7043C194.138 15.2024 193.408 17.0155 193.408 19.1437C193.408 21.272 194.138 23.0902 195.592 24.5986C197.047 26.107 198.801 26.8611 200.85 26.8611C202.344 26.8611 203.704 26.4427 204.923 25.6059C206.142 24.7691 207.047 23.6636 207.632 22.2896H205.753C205.233 23.1626 204.543 23.8651 203.679 24.3971C202.814 24.9344 201.874 25.203 200.85 25.203C199.401 25.203 198.141 24.7071 197.067 23.7101C195.992 22.7132 195.352 21.4786 195.137 20.0012H208.242C208.292 19.4485 208.317 19.1644 208.317 19.1437C208.317 17.0155 207.587 15.2024 206.133 13.7043C204.678 12.2063 202.914 11.4573 200.85 11.4573ZM195.137 18.2914C195.347 16.8192 195.992 15.5846 197.067 14.598C198.141 13.6114 199.401 13.1155 200.85 13.1155C202.299 13.1155 203.564 13.6114 204.643 14.598C205.723 15.5846 206.372 16.8192 206.582 18.2914H195.137Z" fill="#030303"/>
<path d="M215.838 11.4573C214.779 11.4573 213.794 11.7569 212.874 12.351C211.955 12.945 211.325 13.6114 210.985 14.35H210.935V11.8861H209.276V26.4324H210.935V17.4649C210.97 16.2923 211.475 15.2747 212.45 14.412C213.424 13.5494 214.509 13.1206 215.693 13.1206C216.878 13.1206 217.842 13.5029 218.572 14.2622C219.302 15.0267 219.671 16.0237 219.671 17.2634V26.4376H221.331V17.2634C221.331 15.5226 220.846 14.1176 219.876 13.0535C218.907 11.9894 217.562 11.4573 215.838 11.4573Z" fill="#030303"/>
<path d="M11.7397 3.03737H30.0715V30.9626H2.94868V24.4953L7.07682 27.3209H25.9384L20.6157 23.6791H7.07682L0 18.839V34H33.0202V0H0V7.89304L7.07682 12.7487H25.9384L11.7397 3.03737Z" fill="#ED1C24"/>
<path d="M7.07682 16.3905H20.6158L25.9434 20.0322H7.07183L0 15.1972V11.5555L7.07682 16.3905Z" fill="#ED1C24"/>
<path d="M152.442 7.58827L141.971 18.3689V7.58827H140.312V26.4324H141.971V20.7761L144.465 18.2139L152.442 26.4324H154.786L145.635 17.0103L154.786 7.58827H152.442Z" fill="#030303"/>
<path d="M157.404 11.8809H155.745V26.4272H157.404V11.8809Z" fill="#030303"/>
<path d="M40.3619 26.4324H53.8059V23.0128H43.8253V18.6943H52.1216V15.2747H43.8253V11.0027H53.8059V7.58827H40.3619V26.4324Z" fill="#030303"/>
<path d="M65.0408 11.886L61.9672 16.2303L61.9772 16.251L58.8886 11.886H54.7654L59.9031 19.1592L54.7654 26.4324H58.8886L61.9622 22.0778L65.0408 26.4324H69.164L64.0263 19.1592L69.164 11.886H65.0408Z" fill="#030303"/>
<path d="M78.3448 11.4573C76.4407 11.4573 74.8714 12.3096 73.637 14.0194H73.587V11.8861H70.1235V30.7302H73.587V24.3248H73.637C74.8564 26.0191 76.4257 26.8611 78.3448 26.8611C80.4439 26.8611 82.1481 26.1379 83.4675 24.6864C84.787 23.2349 85.4417 21.4011 85.4417 19.1696C85.4417 16.938 84.782 15.0991 83.4675 13.6424C82.1531 12.1857 80.4439 11.4573 78.3448 11.4573ZM80.6588 22.2844C79.8792 23.1574 78.8946 23.5913 77.7051 23.5913C76.5157 23.5913 75.5361 23.1574 74.7515 22.2844C73.9718 21.4114 73.582 20.3731 73.582 19.1696C73.582 17.966 73.9718 16.9225 74.7515 16.0392C75.5311 15.1559 76.5157 14.722 77.7051 14.722C78.8946 14.722 79.8792 15.161 80.6588 16.0392C81.4385 16.9173 81.8283 17.9608 81.8283 19.1696C81.8283 20.3783 81.4385 21.4166 80.6588 22.2844Z" fill="#030303"/>
<path d="M89.5248 13.8955H89.4749V11.8861H86.4012V26.4324H89.7447V18.0899C89.8097 17.2325 90.1396 16.5196 90.7343 15.941C91.329 15.3625 92.0387 15.0732 92.8683 15.0732H93.673V11.4573H93.3831C91.7389 11.4573 90.4544 12.2683 89.5298 13.8955H89.5248Z" fill="#030303"/>
<path d="M101.669 11.4573C99.5203 11.4573 97.7012 12.196 96.2018 13.6682C94.7075 15.1404 93.9578 16.969 93.9578 19.1437C93.9578 21.3184 94.7025 23.1522 96.1918 24.6348C97.6812 26.1173 99.4904 26.856 101.619 26.856C103.199 26.856 104.618 26.4221 105.887 25.5491C107.157 24.6761 108.042 23.5138 108.546 22.0571H104.788C104.478 22.5427 104.048 22.9508 103.494 23.2762C102.939 23.6016 102.314 23.7669 101.614 23.7669C100.655 23.7669 99.8052 23.4725 99.0655 22.8888C98.3259 22.3051 97.8611 21.5974 97.6612 20.7812H109.056C109.186 20.1975 109.251 19.65 109.251 19.1489C109.251 17.0052 108.511 15.1869 107.032 13.694C105.553 12.2012 103.763 11.4573 101.664 11.4573M97.7162 17.687C97.8961 16.783 98.3409 16.0185 99.0606 15.3987C99.7752 14.7788 100.645 14.4689 101.669 14.4689C102.694 14.4689 103.554 14.7736 104.243 15.3883C104.933 15.9979 105.368 16.7675 105.548 17.687H97.7162Z" fill="#030303"/>
<path d="M121.93 19.7378C121.51 19.0766 120.986 18.6272 120.361 18.3844C119.736 18.1468 119.057 17.966 118.317 17.842C117.577 17.718 116.898 17.6044 116.278 17.5011C115.658 17.3977 115.133 17.217 114.709 16.9638C114.284 16.7107 114.069 16.344 114.069 15.8687C114.069 15.3935 114.254 15.0371 114.619 14.7478C114.983 14.4637 115.533 14.319 116.263 14.319C116.993 14.319 117.637 14.4998 118.092 14.8563C118.522 15.1972 118.737 15.6673 118.767 16.2665H122.09C122.065 14.7633 121.55 13.5907 120.546 12.7487C119.511 11.8861 118.087 11.4573 116.263 11.4573C114.439 11.4573 113.074 11.8396 112.065 12.5989C111.055 13.3634 110.55 14.4637 110.55 15.9049C110.55 16.9432 110.76 17.7903 111.175 18.4412C111.59 19.0921 112.11 19.5363 112.734 19.7584C113.359 19.9857 114.039 20.1717 114.773 20.3163C115.503 20.461 116.183 20.5643 116.813 20.6211C117.437 20.6779 117.957 20.8432 118.372 21.1118C118.722 21.3391 118.912 21.6542 118.972 22.0571C118.982 22.1346 118.997 22.2069 118.997 22.2896C118.997 22.8268 118.747 23.2349 118.252 23.5293C117.752 23.8238 117.092 23.9684 116.263 23.9684C115.433 23.9684 114.813 23.7773 114.309 23.4053C113.839 23.0541 113.599 22.6047 113.564 22.0623H110.216C110.246 23.4932 110.79 24.6451 111.86 25.5181C112.959 26.4169 114.424 26.8611 116.263 26.8611C118.102 26.8611 119.651 26.4789 120.816 25.7195C121.98 24.9602 122.56 23.8134 122.56 22.2896C122.56 22.2121 122.55 22.1398 122.55 22.0623C122.52 21.1325 122.32 20.3525 121.93 19.7429" fill="#030303"/>
<path d="M133.665 18.3896C133.04 18.1519 132.361 17.9711 131.621 17.8472C130.881 17.7232 130.202 17.6095 129.582 17.5062C128.962 17.4029 128.437 17.2221 128.013 16.969C127.713 16.7934 127.528 16.5558 127.438 16.2717C127.398 16.1477 127.373 16.0185 127.373 15.8739C127.373 15.4142 127.558 15.0422 127.923 14.753C128.287 14.4689 128.837 14.3242 129.567 14.3242C130.297 14.3242 130.941 14.505 131.396 14.8614C131.826 15.2024 132.041 15.6724 132.071 16.2717H135.394C135.369 14.7685 134.855 13.5959 133.85 12.7539C132.815 11.8912 131.391 11.4625 129.567 11.4625C127.743 11.4625 126.378 11.8447 125.369 12.6041C124.359 13.3686 123.854 14.4689 123.854 15.9101C123.854 16.0392 123.869 16.1528 123.874 16.2768C123.919 17.1446 124.114 17.8782 124.479 18.4464C124.894 19.0972 125.414 19.5415 126.038 19.7636C126.663 19.9909 127.343 20.1769 128.078 20.3215C128.807 20.4661 129.487 20.5694 130.117 20.6263C130.746 20.6831 131.261 20.8484 131.676 21.117C132.091 21.3856 132.301 21.7782 132.301 22.2947C132.301 22.8113 132.051 23.2401 131.556 23.5345C131.061 23.8289 130.397 23.9736 129.567 23.9736C128.737 23.9736 128.118 23.7824 127.613 23.4105C127.143 23.0593 126.903 22.6099 126.868 22.0675H123.52C123.55 23.4983 124.094 24.6503 125.164 25.5232C126.263 26.4221 127.728 26.8663 129.567 26.8663C131.406 26.8663 132.955 26.4841 134.12 25.7247C135.284 24.9654 135.864 23.8186 135.864 22.2947C135.864 21.2616 135.654 20.4093 135.229 19.7481C134.81 19.0869 134.285 18.6375 133.66 18.3947" fill="#030303"/>
<path d="M233.315 19.8876C232.861 19.2522 232.291 18.8338 231.611 18.6323C230.926 18.4309 230.192 18.2604 229.402 18.1313C228.612 18.0021 227.873 17.8782 227.198 17.7645C226.518 17.6509 225.949 17.3926 225.494 16.9845C225.039 16.5764 224.809 16.003 224.809 15.2592C224.809 14.6135 225.119 14.0969 225.739 13.7095C226.358 13.3221 227.213 13.1258 228.298 13.1258C229.382 13.1258 230.207 13.3634 230.846 13.8438C231.491 14.3191 231.811 14.9183 231.811 15.6415H233.495C233.495 14.4172 233.015 13.4202 232.056 12.6402C231.096 11.8602 229.842 11.4728 228.298 11.4728C226.753 11.4728 225.559 11.8034 224.579 12.4646C223.595 13.1258 223.105 14.0866 223.105 15.3418C223.105 16.2458 223.275 16.9897 223.62 17.5631C223.96 18.1416 224.399 18.56 224.939 18.8183C225.479 19.0766 226.074 19.2625 226.733 19.3659C227.393 19.4743 228.048 19.5776 228.697 19.6861C229.347 19.7946 229.942 19.9186 230.477 20.0684C231.016 20.2182 231.451 20.4816 231.796 20.8587C232.136 21.2358 232.311 21.742 232.311 22.3774C232.311 23.2814 231.961 23.9787 231.261 24.4746C230.562 24.9705 229.577 25.2133 228.308 25.2133C227.038 25.2133 226.094 24.9189 225.379 24.3352C224.664 23.7514 224.304 22.9973 224.304 22.0726H222.62C222.62 23.4777 223.14 24.6296 224.179 25.5284C225.219 26.4272 226.593 26.8715 228.303 26.8715C230.012 26.8715 231.471 26.4841 232.486 25.704C233.5 24.924 234.01 23.8393 234.01 22.4497C234.01 21.3856 233.78 20.5333 233.325 19.8979" fill="#030303"/>
</g>
</svg>
